<?xml version="1.0" encoding="UTF-8"?>
<svg id="Layer_2" data-name="Layer 2" xmlns="http://www.w3.org/2000/svg" viewBox="0 0 123.89 127.86">
  <defs>
    <style>
      .cls-1 {
        fill: #00386c;
      }

      .cls-2 {
        fill: #eeb111;
      }

      .cls-3 {
        fill: #fff;
      }
    </style>
  </defs>
  <g id="Layer_1-2" data-name="Layer 1">
    <g>
      <g>
        <path class="cls-2" d="M62,0C37.65,0,17.84,19.81,17.84,44.16s19.81,44.16,44.16,44.16,44.16-19.81,44.16-44.16S86.35,0,62,0Z"/>
        <circle class="cls-1" cx="62" cy="44.16" r="41.97" transform="translate(-13.11 31.79) rotate(-26.11)"/>
        <path class="cls-2" d="M95.37,44.62l-6.41-8.13s-.69-.82-.78-1.92c-.23-2.7-2.29-5.11-4.1-6.81,0,0,0-.01,0-.02-1.11-1.01-3.64-3.17-6.6-4.69,0,0,4.84,.92,6.87,2.42,0-.12,0-.25,0-.37,0-7.38-6.31-13.47-14.48-14.38,1.06,.76,2,1.64,2.8,2.61-3.6-1.5-7.66-2.37-11.76-2.48-6.9-.19-13.37,1.81-18.79,5.38,1.86-.33,3.76-.51,5.71-.51-2.88,1.11-20.26,8.69-19.19,29.25,2.3-7.29,7.26-13.4,13.73-17.2-6.09,5.59-9.9,13.61-9.9,22.53,0,9.63,4.45,18.22,11.41,23.82-2.13-2.78-3.4-6.26-3.4-10.04,0-1.19,.13-2.35,.37-3.46,.74,4.4,3.26,8.2,6.78,10.64-1.61-4.56-2.92-11.21-1.21-18.8,0,0,.53,8.17,8.85,14.9,5.6,4.53,5.59,8.95,4.58,11.88,8.23-1.99,9.85-5.94,9.85-5.94,.09,2.15-.32,4.04-1.07,5.7,3.27-2.08,5.29-4.92,5.29-8.04,0-3.72-2.85-7.02-7.28-9.14,6.59,1.91,11.18,6.18,11.18,11.14,0,.74-.11,1.47-.3,2.17,5.77-7.47,.71-12.37-1.8-13.64h0c-1.43-.88-3.17-1.75-5.28-2.57-12.52-4.87-6.69-16.3-6.18-17.17,0,0-.65,5.74,2.64,9.71-.15-1.35,.11-2.91,1-4.68,0,0-.22,6.15,9.64,10.1h-.01c2.53,1.09,5.09,2.45,6.94,4.24,1.99,2.21,1.12,4.24,1.12,4.24,0,0,2.92-1.46,4.21-4.5,1.3-3.04-.2-5.79-.2-5.79,.8-1.12,1.15-2.26,1.3-2.98-.22,.08-4.79,1.84-7.18,2.38-3.93,.89-4.22-3.06-4.25-3.06-.02,0,.97,.65,1.91,.78,2.28,.31,8.34-1.34,8.34-1.34,1.19-.34,2.81-1.54,2.81-1.54-.05,.49-.17,.98-.32,1.45,.26-.11,.56-.33,.87-.73,.56-.73,1.12-1.59,1.51-2.2-.77,.09-1.56,.57-1.56,.57-.08-1.16-2.28-1.52-3.02-2.13-.74-.61-.59-2-.59-2,1.85,.88,4.37,.25,5.96,.36m-24.64-19.62c-2.35-.49-4.69-.18-6.78,.74,.99-.15,2.4-.04,3.42,.21-2.48,.42-4.69,1.7-6.35,3.54,1.11-.39,2.3-.6,3.54-.6,.25,0,.49,.01,.74,.03-.08,.15-.17,.3-.25,.46-2.06,4.14-8.2,4.4-8.2,4.4,1.61-.86,2.05-3.95,2.17-6.97,.12-3.02,1.52-6.28,5.59-6.29,3.7,0,6.61,4.15,6.99,4.71-.28-.08-.57-.16-.86-.22m9.6,10.77c-1.74,.42-3.39-.1-4.09-1.16-.17-.28-.11-.51-.06-.62-.41-.07-.82-.1-1.15-.05,0,0,.91-.63,2.68-.93,1.34-.23,2.87,0,2.87,0,.27,.28,.67,.8,1.18,1.78,.12,.23,.25,.46,.38,.69h0c.97,1.63,2.36,3.17,3.67,3.83-2.4-.5-4.61-2.62-5.49-3.55"/>
      </g>
      <g>
        <rect class="cls-2" x="88.7" y="104.2" width="34.69" height=".92"/>
        <rect class="cls-2" x="88.21" y="103.71" width="35.68" height="1.91"/>
      </g>
      <g>
        <rect class="cls-2" x=".96" y="104.2" width="35.19" height=".92"/>
        <rect class="cls-2" x=".46" y="103.71" width="36.19" height="1.92"/>
      </g>
      <g>
        <path class="cls-3" d="M54.53,107.7c-.13-.01-.29-.01-.45-.06-.49-.07-.8-.41-1.27-1.49-.95-2.12-3.3-7.47-3.66-8.25-.24-.5-.36-.7-.5-.7-.15,0-.31,.21-.57,.81l-3.73,8.43c-.29,.67-.57,1.1-1.06,1.2-.14,.03-.28,.04-.45,.06-.17,0-.27,.03-.27,.14,0,.08,.08,.14,.28,.14,.7,0,1.62-.04,1.77-.04,.74,0,1.21,.04,1.84,.04,.18,0,.29-.03,.29-.14,0-.07-.04-.14-.25-.14-.11-.01-.33-.03-.49-.06-.29-.03-.42-.15-.42-.42,0-.17,.08-.53,.22-.89l.43-1.14c.03-.07,.06-.1,.13-.1h3.2s.1,.03,.11,.08l.94,2.22c.04,.13-.01,.22-.17,.25-.13,.03-.2,.08-.2,.17s.08,.13,.31,.13c.89,.01,2.49,.04,3.85,.04,.27,0,.36-.04,.36-.14,0-.08-.08-.14-.27-.14Zm-5.35-3.73h-2.39s-.07-.03-.06-.07l1.19-2.99c.03-.07,.06-.1,.1,0l1.23,2.99s.01,.07-.07,.07Z"/>
        <path class="cls-3" d="M80.9,107.7c-.18-.01-.52-.04-.8-.13-.46-.14-.6-.49-.71-1.4l-1.15-8.43c-.04-.35-.13-.54-.27-.54s-.25,.14-.47,.5l-3.83,6.76-3.99-6.69c-.29-.43-.39-.57-.54-.57-.14,0-.24,.12-.29,.54l-1.27,8.59c-.13,.85-.31,1.23-.61,1.27-.32,.04-.75-.22-1.21-.52-.36-.24-1.2-.89-1.86-1.48,.98-1.03,1.61-2.39,1.59-3.28-.01-.33-.17-.41-.46-.46-.45-.07-1.42-.14-2.01-.14-.11,0-.31,0-.31,.13,0,.08,.08,.12,.25,.17,.14,.01,.36,.06,.52,.15,.21,.11,.36,.31,.36,.67,0,.85-.32,1.51-.71,2.12-.13-.13-1.86-1.82-2.23-2.25-1.24-1.41-2.11-2.3-2.11-3.42,0-1.03,.7-1.28,1.23-1.28,.64,0,1.16,.32,1.44,.64,.34,.39,.46,.78,.47,1.21,0,.2,.06,.28,.14,.28s.14-.07,.17-.28c.04-.43,.15-1.61,.15-1.91,0-.2-.06-.31-.28-.41-.4-.17-1.07-.32-1.94-.32-2.47,0-3.64,1.33-3.64,2.65,0,.54,.07,1.23,.66,2.05-1.23,.59-2.36,1.52-2.36,3.06,0,1.31,.85,3.18,4.02,3.18,1.48,0,2.44-.49,3.13-1.02,.81,.61,1.4,.8,2.65,.8,.12,0,1.07,.01,1.73,.02,.05,0,1.5-.03,1.74-.03,.42,0,1.19,.04,1.8,.04,.22,0,.28-.04,.28-.15,0-.08-.04-.13-.25-.13-.18-.01-.31-.03-.52-.07-.35-.07-.49-.24-.49-.64,0-.21,0-.52,.06-1.12l.4-3.94c.27,.47,.88,1.62,1.12,2.02,.53,.89,1.38,2.49,1.87,3.27,.39,.61,.47,.75,.63,.75,.11,0,.2-.08,.57-.8l2.88-5.39,.5,5c.06,.63,.04,.71-.18,.8-.1,.03-.15,.08-.15,.14,0,.07,.06,.15,.32,.17,1.59,.08,2.72,.08,3.88,.08,.22,0,.33-.03,.33-.14,0-.1-.08-.14-.27-.14Zm-21.11-.78c-1.31,0-2.47-1.05-2.47-2.79,0-.78,.21-1.24,.39-1.45,1.13,1.4,2.23,2.61,3.57,3.87-.36,.22-.88,.38-1.49,.38Z"/>
      </g>
      <g>
        <path class="cls-3" d="M13.48,123.59c-.15,0-.21,.13-.31,.54-.15,.58-.37,1-.63,1.29-.75,.85-1.73,.98-3.31,.98-3.23,0-5.38-2.65-5.38-6.61,0-2.06,.52-3.84,1.69-4.86,.75-.65,1.69-.92,2.83-.92,1.86,0,3.21,.5,3.88,1.21,.63,.69,.71,1.46,.73,1.88,.02,.27,.08,.4,.23,.4,.17,0,.21-.17,.23-.46,.04-.48,.02-1.61,.06-2.25,.04-.65,.1-1.11,.1-1.27,0-.11,0-.23-.21-.25-.58-.02-1.04-.11-1.9-.25-.75-.12-1.63-.23-2.73-.23-2.79,0-4.71,.58-6.36,1.98-1.94,1.63-2.38,4.02-2.38,5.32,0,2.06,.54,4.04,2.42,5.65,2.02,1.69,4.48,2.11,6.98,2.11,1.23,0,2.54-.13,3.31-.44,.33-.11,.46-.27,.5-.56,.19-.92,.42-2.6,.42-2.92,0-.15-.02-.35-.15-.35Z"/>
        <path class="cls-3" d="M22.9,112.79c-5.65,0-8.23,3.75-8.23,7.59,0,3.4,2.42,7.48,8.09,7.48,5.04,0,8.07-3.42,8.07-7.9,0-3.9-3.06-7.17-7.94-7.17Zm.44,13.84c-3.31,0-4.83-3.48-4.83-7.11,0-4.56,1.98-5.54,3.75-5.54,3.4,0,4.73,3.63,4.73,6.82,0,5.31-2.46,5.82-3.65,5.82Z"/>
        <path class="cls-3" d="M81.29,124.13c-.12,0-.19,.11-.23,.35-.17,.88-.4,1.31-.94,1.52-.54,.21-2.06,.23-2.56,.23-2.13,0-2.4-.31-2.42-1.65-.02-.73,0-1.86,0-2.52v-1.33c0-.15,.02-.25,.12-.25,.6,0,2.94,.04,3.48,.08,.94,.06,1.21,.38,1.29,.94,.02,.15,.04,.29,.06,.44,.04,.17,.08,.31,.21,.31,.12,0,.17-.12,.17-.37,0-.21,0-1.15,.02-1.6,.06-.75,.15-1.44,.15-1.63,0-.12,0-.23-.12-.23-.1,0-.15,.08-.27,.25-.21,.35-.46,.4-1.4,.44-.69,.02-3.02,.04-3.56,.02-.13,0-.15-.1-.15-.23v-4.23c0-.13,.04-.19,.15-.19,.58,0,3.02,.04,3.65,.1,.92,.08,1.17,.33,1.27,.77,.08,.27,.1,.46,.1,.67,.02,.17,.1,.27,.19,.27,.12,0,.19-.12,.19-.27,.06-1,.1-1.67,.15-2.06,.06-.56,.1-.75,.1-.85s-.02-.17-.12-.17c-.08,0-.17,.04-.31,.08-.19,.04-.65,.08-1.04,.08-.31,0-5.79,.02-6.19,.02-.85,0-1.77-.06-2.86-.06-.31,0-.42,.06-.42,.17s.1,.19,.35,.21c.19,.02,.46,.02,.63,.06,.48,.11,.65,.44,.69,1,.04,.62,.06,1,.06,4.13v3.38c0,1.19-.02,2.33-.06,3.09-.02,.49-.01,.99-.15,1.47-.04,.14-.1,.29-.21,.4-.15,.16-.39,.17-.6,.19-.55,.06-1.1,.02-1.63-.14-.63-.19-.83-.67-.98-1.92l-1.58-11.61c-.06-.48-.17-.75-.37-.75s-.35,.19-.65,.69l-5.27,9.3-5.5-9.21c-.4-.6-.54-.79-.75-.79-.19,0-.33,.17-.4,.75l-1.75,11.82c-.19,1.27-.38,1.71-.94,1.83-.43,.08-.86,0-1.27-.11-.63-.19-.83-.67-.98-1.92l-1.58-11.61c-.06-.48-.17-.75-.37-.75s-.35,.19-.65,.69l-5.27,9.3-5.5-9.21c-.4-.6-.54-.79-.75-.79-.19,0-.33,.17-.4,.75l-1.75,11.82c-.19,1.27-.38,1.71-.94,1.83-.21,.04-.42,.04-.58,.06-.27,0-.38,.08-.38,.19,0,.19,.23,.19,.42,.19,.71,0,1.61-.06,2.21-.06s1.63,.06,2.48,.06c.31,0,.38-.06,.38-.21,0-.11-.06-.17-.35-.17-.25-.02-.42-.04-.71-.1-.48-.1-.67-.33-.67-.88,0-.29,0-.71,.08-1.54l.56-5.42c.37,.65,1.21,2.23,1.54,2.79,.73,1.23,1.9,3.42,2.58,4.5,.54,.85,.65,1.04,.87,1.04,.15,0,.27-.12,.79-1.1l3.96-7.42,.69,6.88c.08,.87,.06,.98-.25,1.1-.13,.04-.21,.12-.21,.19,0,.1,.08,.21,.44,.23,2.07,.11,3.57,.12,5.09,.12,.09,0,.38,0,.43,0,.62-.01,1.3-.05,1.78-.05,.58,0,1.63,.06,2.48,.06,.31,0,.38-.06,.38-.21,0-.11-.06-.17-.35-.17-.25-.02-.42-.04-.71-.1-.48-.1-.67-.33-.67-.88,0-.29,0-.71,.08-1.54l.56-5.42c.37,.65,1.21,2.23,1.54,2.79,.73,1.23,1.9,3.42,2.58,4.5,.54,.85,.65,1.04,.87,1.04,.15,0,.27-.12,.79-1.1l3.96-7.42,.69,6.88c.08,.87,.06,.98-.25,1.1-.13,.04-.21,.12-.21,.19,0,.1,.08,.21,.44,.23,2.19,.12,3.75,.12,5.34,.12h.43c1.06,0,1.86-.06,2.77-.06,2.02,0,4.23,.12,6.88,.12,.71,0,.85-.02,.98-.52,.1-.37,.31-1.83,.31-2.58,0-.23-.02-.42-.17-.42Z"/>
        <path class="cls-3" d="M123.57,124.13c-.12,0-.19,.11-.23,.35-.17,.88-.4,1.31-.94,1.52-.54,.21-2.06,.23-2.56,.23-2.13,0-2.4-.31-2.42-1.65-.02-.73,0-1.86,0-2.52v-1.33c0-.15,.02-.25,.12-.25,.6,0,2.94,.04,3.48,.08,.94,.06,1.21,.38,1.29,.94,.02,.15,.04,.29,.06,.44,.04,.17,.08,.31,.21,.31,.12,0,.17-.12,.17-.37,0-.21,0-1.15,.02-1.6,.06-.75,.15-1.44,.15-1.63,0-.12,0-.23-.12-.23-.1,0-.15,.08-.27,.25-.21,.35-.46,.4-1.4,.44-.69,.02-3.02,.04-3.56,.02-.13,0-.15-.1-.15-.23v-4.23c0-.13,.04-.19,.15-.19,.58,0,3.02,.04,3.65,.1,.92,.08,1.17,.33,1.27,.77,.08,.27,.1,.46,.1,.67,.02,.17,.1,.27,.19,.27,.12,0,.19-.12,.19-.27,.06-1,.1-1.67,.15-2.06,.06-.56,.1-.75,.1-.85s-.02-.17-.12-.17c-.08,0-.17,.04-.31,.08-.19,.04-.65,.08-1.04,.08-.31,0-5.79,.02-6.19,.02-.85,0-1.77-.06-2.86-.06-.31,0-.42,.06-.42,.17s.1,.19,.35,.21c.19,.02,.46,.02,.63,.06,.48,.11,.65,.44,.69,1,.04,.62,.06,1,.06,4.13v3.38c0,1.19-.02,2.33-.06,3.09-.04,1.21-.12,1.94-.65,2.02-.15,.04-.35,.06-.58,.08-.29,0-.38,.1-.38,.19,0,.13,.12,.19,.46,.19,1.06,0,1.86-.06,2.77-.06,2.02,0,4.23,.12,6.88,.12,.71,0,.85-.02,.98-.52,.1-.37,.31-1.83,.31-2.58,0-.23-.02-.42-.17-.42Z"/>
        <path class="cls-3" d="M98.63,127.21c-.15-.02-.27-.02-.48-.06-.54-.08-1-.4-2.02-1.54-1.17-1.35-2.58-3.4-3.75-5.09,1.65-1.02,2.58-2.25,2.58-3.86,0-1.46-.83-2.44-1.75-2.94-.85-.48-2.11-.65-3.92-.65-.88,0-2.73,.06-3.1,.06-.27,0-2.11-.06-2.94-.06-.29,0-.42,.06-.42,.17s.12,.19,.35,.21c.17,.02,.48,.02,.77,.08,.46,.1,.69,.35,.73,1.13,.02,.62,.06,1,.06,3.98v3.38c0,1.86-.02,3.21-.1,4.02-.06,.65-.21,1-.6,1.1-.21,.04-.46,.06-.65,.08-.21,0-.35,.06-.35,.19s.1,.19,.38,.19c.65,0,2.52-.06,2.75-.06,.13,0,2.23,.06,3.52,.06,.27,0,.4-.06,.4-.17s-.04-.19-.35-.21c-.38-.04-.6-.04-.86-.12-.58-.13-.71-.56-.75-1.06-.1-.81-.1-1.71-.1-3.23v-.98c0-.12,.06-.15,.15-.15h1.27c.1,0,.19,.06,.23,.11,.35,.52,.79,1.31,1.67,2.77,.75,1.21,1.36,2.04,1.98,2.4,.67,.44,1.52,.63,3.5,.63h1.73c.19,0,.38-.02,.38-.19,0-.12-.12-.19-.33-.19Zm-7.73-7.05c-.31,.23-.69,.31-1.21,.31s-1.11-.06-1.48-.25c-.12-.06-.17-.13-.17-.29v-5.34c0-.15,.04-.17,.12-.21,.13-.06,.46-.08,.77-.08,1,0,2.73,.71,2.73,3.44,0,1.29-.35,2.12-.75,2.42Z"/>
        <path class="cls-3" d="M110.88,123.59c-.15,0-.21,.13-.31,.54-.15,.58-.37,1-.63,1.29-.75,.85-1.73,.98-3.31,.98-3.23,0-5.38-2.65-5.38-6.61,0-2.06,.52-3.84,1.69-4.86,.75-.65,1.69-.92,2.83-.92,1.86,0,3.21,.5,3.88,1.21,.63,.69,.71,1.46,.73,1.88,.02,.27,.08,.4,.23,.4,.17,0,.21-.17,.23-.46,.04-.48,.02-1.61,.06-2.25,.04-.65,.1-1.11,.1-1.27,0-.11,0-.23-.21-.25-.58-.02-1.04-.11-1.9-.25-.75-.12-1.63-.23-2.73-.23-2.79,0-4.71,.58-6.36,1.98-1.94,1.63-2.38,4.02-2.38,5.32,0,2.06,.54,4.04,2.42,5.65,2.02,1.69,4.48,2.11,6.98,2.11,1.23,0,2.54-.13,3.31-.44,.33-.11,.46-.27,.5-.56,.19-.92,.42-2.6,.42-2.92,0-.15-.02-.35-.15-.35Z"/>
      </g>
    </g>
  </g>
</svg>