<svg xmlns="http://www.w3.org/2000/svg" id="Layer_1" data-name="Layer 1" viewBox="0 0 1555.01 175.39"><defs><clipPath id="clip-path"><path d="M0 0h1555.01v175.39H0z" style="fill:none"/></clipPath><style>.cls-2{clip-path:url(#clip-path)}.cls-3{fill:#fff}</style></defs><g class="cls-2"><path d="M0 168.6V3.57h79.07c31.08.21 57.13 14.14 57.13 43.18 0 20.34-17.13 32.67-35.64 36.11v.46c21.93 3 39.76 16.91 39.76 40.44 0 48.05-61.25 44.84-62.85 44.84Zm72.44-32c11.43 0 19.89-6.85 19.89-17.14 0-9.14-6.4-17.82-16.69-18.51H45.71v35.65ZM45.71 69.15 69 68.92c12.34 0 20.34-4.79 20.34-17.38 0-9.36-8-16-18.73-16h-24.9ZM262.85 106.86h-33.6v-32h79.3v88.26c-37 5.48-44.11 8.91-83.88 8.91-51.41-1.6-82.71-34.33-82.71-86S173.26 1.72 224.67.12c40-1.13 82.06 4.81 82.73 52.8h-45.7c-2.28-16-14.86-20.79-29.93-20.79-30.86 0-41.83 27.19-41.83 53.93 0 32.45 16.23 53.93 49.14 53.93a124.52 124.52 0 0 0 23.77-2.74ZM374.88 172.8c-26.23 0-48.37-19.18-49.05-46.34h16c.46 25.33 19.16 32.64 41.29 32.64 18.49 0 39.72-10.73 39.72-31.75 0-16.41-11.88-24.18-25.8-28.74-26.69-8.9-67.3-17.35-67.3-52.94 0-28.74 26.47-44.5 52.49-44.5 21.67 0 50 7.53 53.61 39.25h-16c-.46-20.31-18.94-25.54-35.84-25.54-17.11 0-38.34 8.66-38.34 28.74 0 46.78 93.1 25.56 93.1 82.37 0 35.86-30.8 46.81-63.89 46.81M470.8 4.61v106.55c1.14 29.89 18.25 48 45.41 48s44.27-18.06 45.4-48V4.61h14.84v106.78c-.45 35.37-20.32 61.41-60.24 61.41s-59.78-26-60.24-61.41V4.61ZM603.2 155a10.34 10.34 0 0 1 3.09 7.47 10.51 10.51 0 0 1-3.11 7.62 10.27 10.27 0 0 1-7.51 3.15 10.14 10.14 0 0 1-7.52-3.15 10.71 10.71 0 0 1-.06-15.09 10.43 10.43 0 0 1 15.11 0m1.59-1.65a12.4 12.4 0 0 0-9.12-3.79 12.6 12.6 0 0 0-8.88 3.51 12.29 12.29 0 0 0-4 9.4 12.93 12.93 0 0 0 21.93 9.28 13 13 0 0 0 .1-18.4m-7.54 8.14a3.42 3.42 0 0 1-2 .53h-1.45v-4.15h.91a6.44 6.44 0 0 1 2.17.29 1.65 1.65 0 0 1 1.16 1.64 1.89 1.89 0 0 1-.75 1.69m-3.49 3.1h.79l.83.06a4 4 0 0 1 1.28.24 1.65 1.65 0 0 1 1 1 7 7 0 0 1 .24 1.75 9.1 9.1 0 0 0 .22 2h3.57l-.12-.42a1.24 1.24 0 0 1-.09-.4 3.22 3.22 0 0 1 0-.43v-1.26a3.86 3.86 0 0 0-1.26-3.23 5.23 5.23 0 0 0-2-.83 4.59 4.59 0 0 0 2.48-1 3.13 3.13 0 0 0 1-2.6 3.6 3.6 0 0 0-1.91-3.43 6.62 6.62 0 0 0-2.81-.73h-7v14.33h3.76ZM665.18 80.92h29c3 0 13.54 0 19.56-3.11a20 20 0 0 0 11.38-18.27c0-8.17-4.62-16.76-16.43-18.9v-.22a21 21 0 0 0 8.81-5.27c4-3.65 4.51-8.7 4.51-11.6 0-4.51-1.61-12-8.7-16.54-5.91-3.66-14.61-3.66-19.13-3.66h-29Zm15.9-65.64h11.28c5.48 0 13.64 0 13.64 9.67 0 10-8.59 10-13.32 10h-11.6Zm0 31.69h9.56c8 0 17.94 0 17.94 11.06 0 10.43-8.59 10.43-16.22 10.43h-11.28ZM733 43.21c0 7.09 1.07 20 9.56 29 7.09 7.41 17.3 10.63 27.5 10.63 6.44 0 19-1.39 27.61-11.06 6.34-7.09 9.77-19.13 9.77-30.4 0-7.63-1.61-19.77-9.88-29.23-7.63-8.59-19-10.52-27.29-10.52-27.93 0-37.27 21-37.27 41.57m17.4-.53c0-8.81 1.29-17.2 5.69-22.57a17.67 17.67 0 0 1 14.29-6.55c7.95 0 14.51 4.19 17.73 13.75A44.78 44.78 0 0 1 790 41.17c0 12.36-2.69 18.37-5.27 22.24-3.11 4.83-7.73 7.2-14.5 7.2-7.73 0-11.7-3-14.07-6.23-4.62-6-5.8-14.3-5.8-21.7m60.07-39.11 18.9 77.57h18.91l15.15-59.31 14.07 59.31h18.48l19.77-77.57H899.8l-12.57 58.12-13.64-58.12H854.8l-15.16 58.12-12-58.12Zm112.15 77.35h50.28V67.71h-33.31V3.35h-17Zm57.69 0h16.65V3h-16.65Zm30.08 0H1026V16.46l30.09 64.46H1079V3.25h-15.47v61.13l-29.1-61.13h-24.07Zm151.58-53.83c-.11-4.18-.43-10.31-5.59-16.22-6.12-7-16.44-9.77-26.42-9.77-23.53 0-40.72 14.72-40.72 42.22 0 8.16 1.61 20.52 10.32 29 6.12 6 15.25 10.32 33 10.32 15.57 0 23.52-2.69 28.36-4.3V39.56h-31.69v12.89h15v16.33c-1.82.54-4.62 1.51-12.67 1.51-9.24 0-14.4-2.37-18.27-6.67-5.69-6.12-6.44-15.58-6.44-20.84 0-11.92 3.76-29.54 22.67-29.54 3.65 0 9.77.86 13 6a14.76 14.76 0 0 1 2.16 7.84Zm111.3 0c-.11-4.18-.44-10.31-5.59-16.22-6.12-7-16.43-9.77-26.43-9.77-23.52 0-40.71 14.72-40.71 42.22 0 8.16 1.61 20.52 10.31 29 6.13 6 15.25 10.32 33 10.32 15.58 0 23.53-2.69 28.36-4.3V39.56h-31.69v12.89h15v16.33c-1.83.54-4.62 1.51-12.68 1.51-9.24 0-14.39-2.37-18.26-6.67-5.7-6.12-6.45-15.58-6.45-20.84 0-11.92 3.77-29.54 22.67-29.54 3.65 0 9.78.86 13 6a14.65 14.65 0 0 1 2.15 7.84Zm12.14 53.83h17V49.55H1317c2.79 0 6.88 0 8.38 4.4 1.07 3 3.44 22.67 4.19 27h18.37a13.83 13.83 0 0 1-2.36-5.59c-.54-2.15-1.19-5.91-2.37-15-1.39-10.09-2.26-16.76-14-17.83 3.75-1.07 16.22-4.52 16.22-19a19.7 19.7 0 0 0-6.77-14.93c-6.23-5.37-14.93-5.37-23.53-5.26h-29.75Zm16.44-65.43H1313c5.26 0 8.37 0 11 1.83 1.5 1 4.08 3.44 4.08 8.7a10.76 10.76 0 0 1-4.29 9c-2.69 2.14-6.56 2.14-8.49 2.14h-13.42Zm55.64 65.43h53.17V68h-36.52V47h33.09V34.4h-33.09V15.92h35.35V3.25h-52Zm64.56 0h53.18V68h-36.53V47h33.09V34.4h-33.09V15.92H1474V3.25h-52Zm64.35 0h15.69V16.46l30.08 64.46H1555V3.25h-15.47v61.13l-29.1-61.13h-24.07ZM672.3 160.25c.14 3.32.53 9.49 11.56 9.49 10 0 11.22-6.17 11.22-8.57 0-5.37-4.31-6.44-11-8.09-7.31-1.8-10.56-2.6-13-4.26a10.81 10.81 0 0 1-5-9.43c0-9.77 9.23-14 18.27-14 3.18 0 9.62.53 13.48 4.71a12.31 12.31 0 0 1 2.92 8.17h-6.91c-.33-6-5.38-7.3-10.09-7.3-6.65 0-10.63 3-10.63 7.77 0 4.25 2.79 5.71 8.63 7.1 11.43 2.93 12.69 3.19 15.48 5a11 11 0 0 1 4.78 9.57c0 8.5-6.64 14.94-18.93 14.94-3.65 0-11.09-.6-14.87-5.45a14.94 14.94 0 0 1-2.79-9.69Z" class="cls-3"/></g><path d="M740.33 174.26v-42.31h-16.07v-5.64h38.72v5.64h-16.07v42.31h-6.58zM791.43 156.39h18.13l-8.83-23.51Zm6.05-30.09h7.1l19.4 48h-7.24l-5.18-12.49h-22.25l-5.18 12.49h-6.84ZM855.35 174.26v-42.31h-16.07v-5.64H878v5.64h-16.07v42.31h-6.58zM901.66 126.31h30.09v5.64H908.3v14.95h22.32v5.57H908.3v15.94h23.98v5.85h-30.62v-47.95z" class="cls-3"/><g class="cls-2"><path d="M1004.87 126.3V156c0 5.11 1.13 7.23 2.13 8.63 3 4 7.63 4.72 11 4.72 13 0 13-10.17 13-13.62V126.3h6.44v29.56c0 2.6-.06 8-3.92 12.75-4.72 5.92-12 6.65-15.48 6.65-4.51 0-12.48-1.27-16.93-7.64-1.46-2.13-2.79-4.91-2.79-12.09V126.3Z" class="cls-3"/></g><path d="M1068.25 126.31h9.23l23.58 39.65v-39.65h6.11v47.95h-8.5l-24.37-40.71v40.71h-6.05v-47.95zM1137.67 126.31h6.64v47.96h-6.64zM1193.77 174.26h-7.31l-17.07-47.95h7.38l13.61 40.97 14.35-40.97h6.7l-17.66 47.95zM1236.03 126.31h30.09v5.64h-23.45v14.95h22.32v5.57h-22.32v15.94h23.98v5.85h-30.62v-47.95z" class="cls-3"/><g class="cls-2"><path d="M1301.87 147h10.49c.73 0 4.52 0 6.31-1.06a6.81 6.81 0 0 0 3.26-6.24c0-7.78-6.91-7.78-9.57-7.78h-10.49Zm-6.44-20.66h17.13c2.46 0 7.51 0 11 2.26a11.28 11.28 0 0 1 5.31 9.77 11.62 11.62 0 0 1-9 11.62c4.58 1.19 6.64 3.25 7.3 9.23.67 5.65 1.13 9.77 3 15.08h-7.1c-1.07-3.19-1.73-9-2.19-12.68-.8-7-2.46-9-10.5-9H1302v21.65h-6.57ZM1362.86 160.25c.13 3.32.53 9.49 11.56 9.49 10 0 11.22-6.17 11.22-8.57 0-5.37-4.31-6.44-11-8.09-7.31-1.8-10.57-2.6-13-4.26a10.81 10.81 0 0 1-5-9.43c0-9.77 9.23-14 18.26-14 3.19 0 9.63.53 13.48 4.71 2.66 2.92 2.79 6.18 2.93 8.17h-6.91c-.33-6-5.38-7.3-10.09-7.3-6.65 0-10.63 3-10.63 7.77 0 4.25 2.79 5.71 8.63 7.1 11.43 2.93 12.69 3.19 15.48 5a11 11 0 0 1 4.78 9.57c0 8.5-6.64 14.94-18.93 14.94-3.65 0-11.09-.6-14.88-5.45a15 15 0 0 1-2.79-9.69Z" class="cls-3"/></g><path d="M1420.6 126.31h6.64v47.96h-6.64zM1468.86 174.26v-42.31h-16.08v-5.64h38.72v5.64h-16.07v42.31h-6.57zM1529.32 155.4l-18.73-29.1h8.23l14.15 23.52 14.35-23.52h7.44l-18.73 29.43v18.53h-6.71V155.4z" class="cls-3"/></svg>