<?xml version="1.0" encoding="utf-8"?>
<!-- Generator: Adobe Illustrator 26.0.1, SVG Export Plug-In . SVG Version: 6.00 Build 0)  -->
<svg version="1.1" id="Layer_1" xmlns="http://www.w3.org/2000/svg" xmlns:xlink="http://www.w3.org/1999/xlink" x="0px" y="0px"
	 viewBox="0 0 220 40" style="enable-background:new 0 0 220 40;" xml:space="preserve">
<style type="text/css">
	.st0{fill:#007A33;}
	.st1{enable-background:new    ;}
</style>
<g id="UNT_Diving_Eagle_Side-by-Side" transform="translate(-21.401 -16)">
	<g id="Eagle">
		<g>
			<path class="st0" d="M54.4,50.2c-0.3-0.1-0.8,0.1-0.8,0.1c-0.1-0.7-0.9-1.7-0.9-1.7S54.4,50.1,54.4,50.2c0-0.1,0.6-1.1-0.5-2.1
				c-1.5-1.5-4.5-4.1-4.5-4.1c0.2,0.7,1.4,2.8,0.8,6.8l1.5,0.3l0.2,0.3c0,0,1.7,0.2,2,0.5c0,0,0.6,0.4-0.1,1c0,0,1-0.2,1.5-0.8
				c0,0,0.5-0.4-0.1-1L54.4,50.2"/>
		</g>
		<g>
			<path class="st0" d="M46.3,40.8L24.4,20.5c-1-1-0.6-2.3-0.6-2.3L22,22.1c-0.5,1.3,0.2,2,0.8,2.4c0.5,0.4,17.4,14.1,17.4,14.1v0.6
				L23.4,26.3c-0.8-0.6-0.7-1.7-0.7-1.7l-1.2,2.5c-0.6,1.4,0.8,2.3,1.5,2.7C23.6,30.3,40.3,42,40.3,42l0.1,0.7
				c0,0-16.2-10.8-16.8-11.2c-0.7-0.4-0.7-1.5-0.7-1.5l-1.2,2.5c-0.5,1,0.9,1.7,1.5,2.2c0.4,0.3,9.5,5.7,17,10.1h-9.7
				c-1.4,0-1.9-0.4-1.9-0.4l1.3,1.2c0.2,0.2,0.8,0.9,1.7,0.9c0.6,0,3.6,0,3.6,0l0.7,0.3L32.7,47c-0.6,0-0.8,0.1-1.6-0.3l1.4,1.3
				c0.4,0.3,0.7,0.6,1.4,0.6c0.7-0.1,4.6-0.7,4.6-0.7l0.6,0.3L35,49.1c-0.9,0.2-1.6-0.3-1.6-0.3s0.8,0.8,1.3,1.3
				c0.6,0.5,1,0.8,2.7,0.3c0.7-0.2,4-1.3,4-1.3l2.2,0.9c2.2,3,4.9,4.6,4.9,4.6C48,55.3,48.4,56,48.4,56c0.4-0.9,1.5-1.4,2.2-1.3
				c0.6,0.1,0.5,0.9,0.5,0.8c0.4-0.5,0.8-1.1,0.3-1.7c-0.5-0.6-1.7-0.1-1.7-0.1l-1.3-2.2l1.7-1C51,44.8,46.3,40.8,46.3,40.8"/>
		</g>
		<path class="st0" d="M45.1,32.4c-0.3-0.3-10.4-11.7-10.4-11.7c-0.9-1-0.6-1.7-0.6-1.8l-1.2,2.7c-0.3,0.7,0.2,1.2,0.6,1.6
			c0.4,0.4,11,11.5,11,11.5l-0.1,0.6l-10-10c-0.8-0.8-0.6-1.5-0.6-1.5l-1,2.4c-0.2,0.8,0.6,1.3,1,1.7c0.6,0.6,11.8,11,12.7,11.9
			c2,1.8,2.9,4.1,2.9,4.1C50.6,38.2,46.2,33.7,45.1,32.4"/>
	</g>
	<g id="UNT">
		<path id="Path_1179" class="st0" d="M100.4,24.4l-2.1,5.8h3.2l0.8-2.2h3.1v15.9h-1.7l-1.3,3.7h8.9l1.3-3.7h-2.5V28h3.7v2.2h2.2
			l2.2-5.8L100.4,24.4"/>
		<path id="Path_1180_1_" class="st0" d="M63.3,28h2.3v10.4c0,1.9-0.3,3-1.3,4c-0.9,0.8-2.1,1.3-3.3,1.2c-1.4,0.1-2.8-0.5-3.8-1.4
			c-0.8-0.9-1.3-2.3-1.3-4.4V24.4h-6.5L48,28h2.8v9.9c0,9.4,7.3,10.1,9.5,10.1c5.8,0,9.5-3.7,9.5-9.5V27.9h1.6l1.3-3.5h-8.2"/>
		<path id="Path_1181" class="st0" d="M96.3,28v19.6h-2.7c0,0-12.8-13.5-13.6-14.3V44h2.5l-1.3,3.6h-8.3l1.3-3.6h1.4V28h-2.9
			l1.3-3.6h5.1c0,0,9.7,10.2,13.2,13.8V28.1h-2.5l1.3-3.7h8.4l-1.3,3.7L96.3,28"/>
	</g>
</g>
<g class="st1">
	<path class="st0" d="M103.7,8.4h2.3v5.4c0,0.9,0.1,1.6,0.5,2c0.3,0.4,0.7,0.6,1.3,0.6s1-0.2,1.3-0.6c0.3-0.4,0.5-1,0.5-2V8.4h2.2
		v5.2c0,1.6-0.3,2.8-1,3.5c-0.7,0.7-1.7,1.1-3,1.1c-1.3,0-2.3-0.4-3-1.1c-0.7-0.7-1-1.9-1-3.5V8.4z"/>
	<path class="st0" d="M114.1,8.4h2.3l2.6,4.8l1,2.1h0.1c-0.1-0.5-0.1-1.1-0.2-1.7c-0.1-0.6-0.1-1.2-0.1-1.8V8.4h2.2v9.6h-2.3
		l-2.6-4.8l-1-2.1H116c0.1,0.5,0.1,1.1,0.2,1.7c0.1,0.6,0.1,1.2,0.1,1.8v3.4h-2.2V8.4z"/>
	<path class="st0" d="M124.4,8.4h2.3v9.6h-2.3V8.4z"/>
	<path class="st0" d="M127.8,8.4h2.4l1.2,4.5c0.2,0.5,0.3,1,0.4,1.5s0.3,1,0.4,1.5h0.1c0.1-0.5,0.3-1,0.4-1.5c0.1-0.5,0.3-1,0.4-1.5
		l1.2-4.5h2.3l-3,9.6h-2.7L127.8,8.4z"/>
	<path class="st0" d="M137.7,8.4h6.3v1.8h-4v1.9h3.4V14H140v2.2h4.2v1.8h-6.5V8.4z"/>
	<path class="st0" d="M151.7,18.1l-1.9-3.5h-1.3v3.5h-2.3V8.4h3.6c0.5,0,1,0,1.5,0.1s0.9,0.3,1.2,0.5s0.6,0.5,0.8,0.9
		c0.2,0.4,0.3,0.9,0.3,1.4c0,0.7-0.2,1.3-0.5,1.8c-0.3,0.5-0.8,0.8-1.3,1l2.3,3.9H151.7z M148.5,12.9h1.2c0.6,0,1.1-0.1,1.4-0.4
		c0.3-0.2,0.5-0.6,0.5-1.1c0-0.5-0.2-0.8-0.5-1c-0.3-0.2-0.8-0.3-1.4-0.3h-1.2V12.9z"/>
	<path class="st0" d="M156.2,15.4c0.4,0.3,0.8,0.5,1.2,0.7c0.4,0.2,0.9,0.3,1.3,0.3c0.5,0,0.8-0.1,1.1-0.3c0.2-0.2,0.3-0.4,0.3-0.7
		c0-0.1,0-0.3-0.1-0.4s-0.2-0.2-0.3-0.3c-0.1-0.1-0.3-0.2-0.5-0.2c-0.2-0.1-0.4-0.2-0.6-0.2l-1.3-0.5c-0.3-0.1-0.5-0.2-0.8-0.4
		c-0.2-0.2-0.5-0.3-0.7-0.6c-0.2-0.2-0.3-0.5-0.5-0.7s-0.2-0.6-0.2-1c0-0.4,0.1-0.8,0.3-1.1s0.4-0.7,0.7-0.9
		c0.3-0.3,0.7-0.5,1.1-0.6c0.4-0.1,0.9-0.2,1.5-0.2c0.6,0,1.2,0.1,1.7,0.3s1.1,0.5,1.5,0.9l-1.2,1.4c-0.3-0.2-0.7-0.4-1-0.6
		c-0.3-0.1-0.7-0.2-1.1-0.2c-0.4,0-0.7,0.1-0.9,0.2c-0.2,0.2-0.3,0.4-0.3,0.6c0,0.1,0,0.3,0.1,0.4c0.1,0.1,0.2,0.2,0.3,0.3
		c0.1,0.1,0.3,0.2,0.5,0.2c0.2,0.1,0.4,0.2,0.6,0.2l1.3,0.5c0.6,0.2,1.1,0.6,1.5,1c0.4,0.4,0.5,1,0.5,1.6c0,0.4-0.1,0.8-0.3,1.1
		c-0.2,0.4-0.4,0.7-0.7,0.9c-0.3,0.3-0.7,0.5-1.2,0.7s-1,0.2-1.6,0.2c-0.7,0-1.3-0.1-2-0.3c-0.7-0.2-1.2-0.6-1.8-1L156.2,15.4z"/>
	<path class="st0" d="M164.2,8.4h2.3v9.6h-2.3V8.4z"/>
	<path class="st0" d="M170.8,10.3H168V8.4h7.9v1.8h-2.8v7.8h-2.3V10.3z"/>
	<path class="st0" d="M178.9,14.6l-3.1-6.2h2.5l0.9,2.2c0.1,0.4,0.3,0.7,0.4,1.1c0.1,0.3,0.3,0.7,0.4,1.1h0.1
		c0.1-0.4,0.3-0.7,0.4-1.1c0.1-0.3,0.3-0.7,0.4-1.1l0.9-2.2h2.4l-3.1,6.2v3.4h-2.3V14.6z"/>
</g>
<g class="st1">
	<path class="st0" d="M107.9,31.7c-0.7,0-1.3-0.1-1.9-0.3s-1-0.6-1.5-1s-0.7-1-0.9-1.6c-0.2-0.6-0.3-1.3-0.3-2.1s0.1-1.5,0.3-2.1
		c0.2-0.6,0.5-1.1,0.9-1.6c0.4-0.4,0.9-0.7,1.5-1s1.2-0.3,1.9-0.3c0.7,0,1.3,0.1,1.9,0.3s1,0.5,1.5,1c0.4,0.4,0.7,0.9,0.9,1.6
		s0.3,1.3,0.3,2.1c0,0.8-0.1,1.5-0.3,2.1c-0.2,0.6-0.5,1.1-0.9,1.6c-0.4,0.4-0.9,0.8-1.5,1S108.5,31.7,107.9,31.7z M107.9,29.9
		c0.7,0,1.2-0.3,1.6-0.8c0.4-0.6,0.6-1.3,0.6-2.3c0-1-0.2-1.7-0.6-2.3c-0.4-0.5-1-0.8-1.6-0.8c-0.7,0-1.2,0.3-1.6,0.8
		c-0.4,0.5-0.6,1.3-0.6,2.3c0,1,0.2,1.7,0.6,2.3S107.2,29.9,107.9,29.9z"/>
	<path class="st0" d="M114.4,21.9h6.4v1.8h-4.1V26h3.5v1.8h-3.5v3.7h-2.3V21.9z"/>
	<path class="st0" d="M125.7,21.9h2.3l2.6,4.8l1,2.1h0.1c-0.1-0.5-0.1-1.1-0.2-1.7s-0.1-1.2-0.1-1.8v-3.4h2.2v9.6h-2.3l-2.6-4.8
		l-1-2.1h-0.1c0.1,0.5,0.1,1.1,0.2,1.7c0.1,0.6,0.1,1.2,0.1,1.8v3.4h-2.2V21.9z"/>
	<path class="st0" d="M140.2,31.7c-0.7,0-1.3-0.1-1.9-0.3c-0.6-0.2-1-0.6-1.5-1s-0.7-1-0.9-1.6c-0.2-0.6-0.3-1.3-0.3-2.1
		s0.1-1.5,0.3-2.1c0.2-0.6,0.5-1.1,0.9-1.6c0.4-0.4,0.9-0.7,1.5-1c0.6-0.2,1.2-0.3,1.9-0.3c0.7,0,1.3,0.1,1.9,0.3s1,0.5,1.5,1
		c0.4,0.4,0.7,0.9,0.9,1.6s0.3,1.3,0.3,2.1c0,0.8-0.1,1.5-0.3,2.1c-0.2,0.6-0.5,1.1-0.9,1.6c-0.4,0.4-0.9,0.8-1.5,1
		S140.8,31.7,140.2,31.7z M140.2,29.9c0.7,0,1.2-0.3,1.6-0.8c0.4-0.6,0.6-1.3,0.6-2.3c0-1-0.2-1.7-0.6-2.3c-0.4-0.5-1-0.8-1.6-0.8
		c-0.7,0-1.2,0.3-1.6,0.8c-0.4,0.5-0.6,1.3-0.6,2.3c0,1,0.2,1.7,0.6,2.3S139.5,29.9,140.2,29.9z"/>
	<path class="st0" d="M152.1,31.6l-1.9-3.5h-1.3v3.5h-2.3v-9.6h3.6c0.5,0,1,0,1.5,0.1c0.5,0.1,0.9,0.3,1.2,0.5
		c0.4,0.2,0.6,0.5,0.8,0.9s0.3,0.9,0.3,1.4c0,0.7-0.2,1.3-0.5,1.8c-0.3,0.5-0.8,0.8-1.3,1l2.3,3.9H152.1z M148.9,26.4h1.2
		c0.6,0,1.1-0.1,1.4-0.4c0.3-0.2,0.5-0.6,0.5-1.1c0-0.5-0.2-0.8-0.5-1c-0.3-0.2-0.8-0.3-1.4-0.3h-1.2V26.4z"/>
	<path class="st0" d="M157.9,23.8h-2.8v-1.8h7.9v1.8h-2.8v7.8h-2.3V23.8z"/>
	<path class="st0" d="M164.5,21.9h2.3v3.7h3.5v-3.7h2.3v9.6h-2.3v-4h-3.5v4h-2.3V21.9z"/>
	<path class="st0" d="M180.2,23.8h-2.8v-1.8h7.9v1.8h-2.8v7.8h-2.3V23.8z"/>
	<path class="st0" d="M186.8,21.9h6.3v1.8h-4v1.9h3.4v1.8h-3.4v2.2h4.2v1.8h-6.5V21.9z"/>
	<path class="st0" d="M197.1,26.6l-2.6-4.7h2.5l0.9,1.8c0.1,0.2,0.2,0.5,0.3,0.7c0.1,0.3,0.2,0.5,0.4,0.8h0.1
		c0.1-0.3,0.2-0.6,0.3-0.8c0.1-0.3,0.2-0.5,0.3-0.7l0.8-1.8h2.4l-2.6,4.8l2.8,4.8h-2.5l-1-2c-0.1-0.3-0.2-0.5-0.4-0.8
		c-0.1-0.3-0.2-0.5-0.4-0.8h-0.1c-0.1,0.3-0.2,0.6-0.3,0.8c-0.1,0.3-0.2,0.5-0.3,0.8l-0.9,2h-2.5L197.1,26.6z"/>
	<path class="st0" d="M208.8,29.3h-3.1l-0.6,2.3h-2.3l3.2-9.6h2.7l3.2,9.6h-2.4L208.8,29.3z M208.3,27.6l-0.2-0.9
		c-0.1-0.5-0.3-1-0.4-1.5c-0.1-0.5-0.3-1.1-0.4-1.6h-0.1c-0.1,0.5-0.3,1-0.4,1.6c-0.1,0.5-0.3,1-0.4,1.5l-0.2,0.9H208.3z"/>
	<path class="st0" d="M213.6,28.8c0.4,0.3,0.8,0.5,1.2,0.7c0.4,0.2,0.9,0.3,1.3,0.3c0.5,0,0.8-0.1,1.1-0.3c0.2-0.2,0.3-0.4,0.3-0.7
		c0-0.1,0-0.3-0.1-0.4s-0.2-0.2-0.3-0.3s-0.3-0.2-0.5-0.2c-0.2-0.1-0.4-0.2-0.6-0.2l-1.3-0.5c-0.3-0.1-0.5-0.2-0.8-0.4
		c-0.2-0.2-0.5-0.3-0.7-0.6c-0.2-0.2-0.3-0.5-0.5-0.7c-0.1-0.3-0.2-0.6-0.2-1c0-0.4,0.1-0.8,0.3-1.1s0.4-0.7,0.7-0.9
		c0.3-0.3,0.7-0.5,1.1-0.6c0.4-0.1,0.9-0.2,1.5-0.2c0.6,0,1.2,0.1,1.7,0.3s1.1,0.5,1.5,0.9l-1.2,1.4c-0.3-0.2-0.7-0.4-1-0.6
		s-0.7-0.2-1.1-0.2c-0.4,0-0.7,0.1-0.9,0.2c-0.2,0.2-0.3,0.4-0.3,0.6c0,0.1,0,0.3,0.1,0.4s0.2,0.2,0.3,0.3s0.3,0.2,0.5,0.2
		c0.2,0.1,0.4,0.2,0.6,0.2l1.3,0.5c0.6,0.2,1.1,0.6,1.5,1c0.4,0.4,0.5,1,0.5,1.6c0,0.4-0.1,0.8-0.3,1.1c-0.2,0.4-0.4,0.7-0.7,0.9
		c-0.3,0.3-0.7,0.5-1.2,0.7s-1,0.2-1.6,0.2c-0.7,0-1.3-0.1-2-0.3c-0.7-0.2-1.2-0.6-1.8-1L213.6,28.8z"/>
</g>
</svg>
