<svg width="24" height="24" viewBox="0 0 24 24" fill="none" xmlns="http://www.w3.org/2000/svg">
<path d="M15.4751 18.7912C15.3425 18.9242 15.1623 18.9993 14.9741 19C14.7859 19.0007 14.6051 18.9269 14.4715 18.7949C14.3379 18.6629 14.2624 18.4835 14.2617 18.2961C14.261 18.1087 14.3351 17.9287 14.4677 17.7957L19.5773 12.7113L2.71619 12.7113C2.62233 12.7121 2.52924 12.6944 2.4423 12.6591C2.35536 12.6239 2.2763 12.5719 2.2097 12.506C2.1431 12.4402 2.09027 12.3618 2.05427 12.2755C2.01828 12.1892 1.99983 12.0967 2 12.0032C2.00066 11.8143 2.07633 11.6334 2.2105 11.4998C2.34467 11.3662 2.52645 11.2909 2.71619 11.2902L19.5773 11.2902L14.4677 6.21325C14.3368 6.07883 14.2636 5.89898 14.2636 5.71177C14.2636 5.52457 14.3368 5.34471 14.4677 5.2103C14.5334 5.1437 14.6118 5.09081 14.6983 5.0547C14.7848 5.0186 14.8776 5 14.9714 5C15.0652 5 15.158 5.0186 15.2445 5.0547C15.331 5.09081 15.4094 5.1437 15.4751 5.2103L21.7946 11.5055C21.9262 11.638 22 11.8169 22 12.0032C22 12.1896 21.9262 12.3684 21.7946 12.501L15.4751 18.7912Z" fill="#CF1312"/>
</svg>
