<svg width="24" height="24" viewBox="0 0 24 24" fill="none" xmlns="http://www.w3.org/2000/svg">
<path d="M8.52487 5.20882C8.65746 5.07582 8.8377 5.00071 9.02592 5C9.21415 4.9993 9.39494 5.07307 9.52853 5.20508C9.66212 5.33709 9.73757 5.51653 9.73827 5.70392C9.73898 5.89131 9.66488 6.0713 9.53228 6.2043L4.42271 11.2887H21.2838C21.3777 11.2879 21.4708 11.3056 21.5577 11.3409C21.6446 11.3761 21.7237 11.4281 21.7903 11.494C21.8569 11.5598 21.9097 11.6382 21.9457 11.7245C21.9817 11.8108 22.0002 11.9033 22 11.9968C21.9993 12.1857 21.9237 12.3667 21.7895 12.5002C21.6553 12.6338 21.4735 12.7091 21.2838 12.7098H4.42271L9.53228 17.7868C9.66316 17.9212 9.73635 18.101 9.73635 18.2882C9.73635 18.4754 9.66316 18.6553 9.53228 18.7897C9.46655 18.8563 9.38816 18.9092 9.30168 18.9453C9.21519 18.9814 9.12235 19 9.02857 19C8.93479 19 8.84195 18.9814 8.75547 18.9453C8.66899 18.9092 8.59059 18.8563 8.52487 18.7897L2.20539 12.4945C2.0738 12.362 2 12.1831 2 11.9968C2 11.8104 2.0738 11.6316 2.20539 11.499L8.52487 5.20882Z" fill="#CF1312"/>
</svg>
