<svg width="12" height="12" viewBox="0 0 12 12" fill="none" xmlns="http://www.w3.org/2000/svg">
<path d="M6 10C5.91428 10.0001 5.82937 9.98225 5.75018 9.94742C5.67098 9.9126 5.59905 9.8615 5.53851 9.79708L1.18742 5.17862C1.06667 5.04835 0.999304 4.8727 1.00001 4.68995C1.00071 4.50719 1.06941 4.33214 1.19116 4.20291C1.31291 4.07368 1.47783 4.00075 1.65001 4.00001C1.82218 3.99926 1.98766 4.07076 2.11039 4.19893L6 8.32749L9.88961 4.19893C10.0123 4.07076 10.1778 3.99926 10.35 4.00001C10.5222 4.00075 10.6871 4.07368 10.8088 4.20291C10.9306 4.33214 10.9993 4.50719 11 4.68995C11.0007 4.8727 10.9333 5.04835 10.8126 5.17862L6.46149 9.79708C6.40095 9.8615 6.32902 9.9126 6.24982 9.94742C6.17063 9.98225 6.08572 10.0001 6 10Z" fill="#212529"/>
</svg>
