<svg width="12" height="12" viewBox="0 0 12 12" fill="none" xmlns="http://www.w3.org/2000/svg">
<path d="M6 8.81219C5.92611 8.81228 5.85294 8.79778 5.78469 8.7695C5.71643 8.74122 5.65443 8.69974 5.60226 8.64742L1.85226 4.89742C1.74819 4.79165 1.69014 4.64903 1.69074 4.50064C1.69134 4.35225 1.75056 4.21011 1.85549 4.10518C1.96042 4.00025 2.10255 3.94104 2.25094 3.94043C2.39933 3.93983 2.54195 3.99789 2.64773 4.10196L6 7.45417L9.35226 4.10196C9.45804 3.99789 9.60066 3.93983 9.74905 3.94043C9.89744 3.94104 10.0396 4.00025 10.1445 4.10518C10.2494 4.21011 10.3086 4.35225 10.3093 4.50064C10.3099 4.64903 10.2518 4.79165 10.1477 4.89742L6.39773 8.64742C6.34556 8.69974 6.28356 8.74122 6.21531 8.7695C6.14705 8.79778 6.07388 8.81228 6 8.81219Z" fill="white"/>
</svg>
