<svg width="18" height="18" viewBox="0 0 18 18" fill="none" xmlns="http://www.w3.org/2000/svg">
<g clip-path="url(#clip0_1_901)">
<mask id="mask0_1_901" style="mask-type:alpha" maskUnits="userSpaceOnUse" x="0" y="0" width="18" height="18">
<path d="M8.99813 5.15177C6.86857 5.15177 5.14991 6.87044 5.14991 9C5.14991 11.1296 6.86857 12.8482 8.99813 12.8482C11.1277 12.8482 12.8464 11.1296 12.8464 9C12.8464 6.87044 11.1277 5.15177 8.99813 5.15177ZM8.99813 11.5011C7.62095 11.5011 6.49707 10.3772 6.49707 9C6.49707 7.62282 7.62095 6.49894 8.99813 6.49894C10.3753 6.49894 11.4992 7.62282 11.4992 9C11.4992 10.3772 10.3753 11.5011 8.99813 11.5011ZM13.004 4.09731C12.5068 4.09731 12.1052 4.49883 12.1052 4.99604C12.1052 5.49326 12.5068 5.89478 13.004 5.89478C13.5012 5.89478 13.9027 5.49513 13.9027 4.99604C13.9028 4.87798 13.8797 4.76105 13.8346 4.65194C13.7895 4.54283 13.7233 4.4437 13.6398 4.36021C13.5563 4.27673 13.4572 4.21054 13.3481 4.16542C13.239 4.12031 13.122 4.09716 13.004 4.09731ZM16.4994 9C16.4994 7.9643 16.5088 6.93798 16.4507 5.90416C16.3925 4.70335 16.1186 3.63763 15.2405 2.75953C14.3605 1.87956 13.2967 1.60751 12.0958 1.54934C11.0601 1.49118 10.0338 1.50056 9.00001 1.50056C7.96431 1.50056 6.93799 1.49118 5.90417 1.54934C4.70335 1.60751 3.63763 1.88144 2.75954 2.75953C1.87957 3.6395 1.60751 4.70335 1.54935 5.90416C1.49118 6.93986 1.50057 7.96618 1.50057 9C1.50057 10.0338 1.49118 11.062 1.54935 12.0958C1.60751 13.2967 1.88145 14.3624 2.75954 15.2405C3.63951 16.1204 4.70335 16.3925 5.90417 16.4507C6.93987 16.5088 7.96618 16.4994 9.00001 16.4994C10.0357 16.4994 11.062 16.5088 12.0958 16.4507C13.2967 16.3925 14.3624 16.1186 15.2405 15.2405C16.1204 14.3605 16.3925 13.2967 16.4507 12.0958C16.5107 11.062 16.4994 10.0357 16.4994 9ZM14.8483 13.4242C14.7114 13.7657 14.5463 14.0209 14.2817 14.2836C14.0171 14.5481 13.7638 14.7132 13.4224 14.8502C12.4355 15.2423 10.092 15.1542 8.99813 15.1542C7.90427 15.1542 5.55893 15.2423 4.57202 14.8521C4.23054 14.7151 3.97536 14.55 3.71269 14.2854C3.44813 14.0209 3.28302 13.7676 3.14605 13.4261C2.75579 12.4373 2.84397 10.0939 2.84397 9C2.84397 7.90614 2.75579 5.5608 3.14605 4.57388C3.28302 4.2324 3.44813 3.97723 3.71269 3.71455C3.97724 3.45188 4.23054 3.28489 4.57202 3.14792C5.55893 2.75766 7.90427 2.84584 8.99813 2.84584C10.092 2.84584 12.4373 2.75766 13.4242 3.14792C13.7657 3.28489 14.0209 3.45 14.2836 3.71455C14.5481 3.97911 14.7132 4.2324 14.8502 4.57388C15.2405 5.5608 15.1523 7.90614 15.1523 9C15.1523 10.0939 15.2405 12.4373 14.8483 13.4242Z" fill="black"/>
</mask>
<g mask="url(#mask0_1_901)">
<rect width="18" height="18" fill="#212529"/>
</g>
</g>
<defs>
<clipPath id="clip0_1_901">
<rect width="18" height="18" fill="white"/>
</clipPath>
</defs>
</svg>
