<svg width="16" height="16" viewBox="0 0 16 16" fill="none" xmlns="http://www.w3.org/2000/svg">
<g clip-path="url(#clip0_1_941)">
<mask id="mask0_1_941" style="mask-type:alpha" maskUnits="userSpaceOnUse" x="0" y="0" width="16" height="16">
<path d="M7.035 12.7363C8.30004 12.7361 9.52862 12.3126 10.5251 11.5333L13.6582 14.6663L14.666 13.6586L11.5329 10.5255C12.3126 9.52891 12.7364 8.30004 12.7367 7.03467C12.7367 3.89092 10.1787 1.33301 7.035 1.33301C3.89124 1.33301 1.33334 3.89092 1.33334 7.03467C1.33334 10.1784 3.89124 12.7363 7.035 12.7363ZM7.035 2.75842C9.39335 2.75842 11.3112 4.67632 11.3112 7.03467C11.3112 9.39302 9.39335 11.3109 7.035 11.3109C4.67665 11.3109 2.75875 9.39302 2.75875 7.03467C2.75875 4.67632 4.67665 2.75842 7.035 2.75842Z" fill="black"/>
</mask>
<g mask="url(#mask0_1_941)">
<rect width="16" height="16" fill="white"/>
</g>
</g>
<defs>
<clipPath id="clip0_1_941">
<rect width="16" height="16" fill="white"/>
</clipPath>
</defs>
</svg>
