<svg width="56" height="56" viewBox="0 0 56 56" fill="none" xmlns="http://www.w3.org/2000/svg">
<g clip-path="url(#clip0_1_651)">
<mask id="mask0_1_651" style="mask-type:alpha" maskUnits="userSpaceOnUse" x="0" y="0" width="56" height="56">
<path d="M8.4301 25.7601H12.1935V34.7199H9.93547C9.3366 34.7199 8.76225 34.9559 8.33878 35.376C7.91531 35.7961 7.67741 36.3658 7.67741 36.9599C7.67741 37.554 7.91531 38.1237 8.33878 38.5438C8.76225 38.9638 9.3366 39.1998 9.93547 39.1998H46.0645C46.6634 39.1998 47.2377 38.9638 47.6612 38.5438C48.0847 38.1237 48.3226 37.554 48.3226 36.9599C48.3226 36.3658 48.0847 35.7961 47.6612 35.376C47.2377 34.9559 46.6634 34.7199 46.0645 34.7199H43.8064V25.7601H47.5699C48.0606 25.7593 48.5376 25.5999 48.9289 25.306C49.3201 25.0122 49.6042 24.6 49.7382 24.1317C49.8721 23.6634 49.8487 23.1646 49.6713 22.7107C49.494 22.2569 49.1725 21.8727 48.7554 21.6162L29.1855 9.66983C28.8299 9.44971 28.4191 9.33301 28 9.33301C27.5808 9.33301 27.1701 9.44971 26.8145 9.66983L7.24461 21.6162C6.82752 21.8727 6.50597 22.2569 6.32865 22.7107C6.15132 23.1646 6.12787 23.6634 6.26183 24.1317C6.39579 24.6 6.67988 25.0122 7.07111 25.306C7.46233 25.5999 7.9394 25.7593 8.4301 25.7601ZM16.7097 25.7601H21.2258V34.7199H16.7097V25.7601ZM30.2581 25.7601V34.7199H25.7419V25.7601H30.2581ZM39.2903 34.7199H34.7742V25.7601H39.2903V34.7199ZM28 14.2057L39.5914 21.2802H16.4086L28 14.2057ZM51.3333 44.4264C51.3333 45.0205 51.0954 45.5902 50.672 46.0103C50.2485 46.4303 49.6741 46.6663 49.0753 46.6663H6.92472C6.32585 46.6663 5.7515 46.4303 5.32803 46.0103C4.90456 45.5902 4.66666 45.0205 4.66666 44.4264C4.66666 43.8323 4.90456 43.2626 5.32803 42.8425C5.7515 42.4224 6.32585 42.1864 6.92472 42.1864H49.0753C49.6741 42.1864 50.2485 42.4224 50.672 42.8425C51.0954 43.2626 51.3333 43.8323 51.3333 44.4264Z" fill="black"/>
</mask>
<g mask="url(#mask0_1_651)">
<rect width="56" height="56" fill="#CF1312"/>
</g>
</g>
<defs>
<clipPath id="clip0_1_651">
<rect width="56" height="56" fill="white"/>
</clipPath>
</defs>
</svg>
