<svg width="56" height="56" viewBox="0 0 56 56" fill="none" xmlns="http://www.w3.org/2000/svg">
<g clip-path="url(#clip0_1_656)">
<mask id="mask0_1_656" style="mask-type:alpha" maskUnits="userSpaceOnUse" x="0" y="0" width="56" height="56">
<path d="M49.0753 44.4228H48.3226V25.3522C48.3176 24.3422 47.9195 23.375 47.2148 22.6608C46.5101 21.9466 45.5557 21.5431 44.5591 21.5381H33.2688V13.1471C33.2639 12.1371 32.8658 11.1699 32.1611 10.4557C31.4564 9.74147 30.502 9.33802 29.5054 9.33301H11.4409C10.4443 9.33802 9.48988 9.74147 8.78517 10.4557C8.08046 11.1699 7.68236 12.1371 7.67742 13.1471V44.4228H6.92473C6.32585 44.4228 5.75151 44.6639 5.32804 45.093C4.90457 45.5222 4.66666 46.1043 4.66666 46.7112C4.66666 47.3182 4.90457 47.9002 5.32804 48.3294C5.75151 48.7586 6.32585 48.9997 6.92473 48.9997H49.0753C49.6741 48.9997 50.2485 48.7586 50.672 48.3294C51.0954 47.9002 51.3333 47.3182 51.3333 46.7112C51.3333 46.1043 51.0954 45.5222 50.672 45.093C50.2485 44.6639 49.6741 44.4228 49.0753 44.4228ZM43.8064 26.1151V44.4228H33.2688V26.1151H43.8064ZM12.1935 13.9099H28.7527V44.4228H12.1935V13.9099ZM14.4516 19.2497C14.4516 18.6427 14.6895 18.0607 15.113 17.6315C15.5365 17.2023 16.1108 16.9612 16.7097 16.9612H21.9785C22.5774 16.9612 23.1517 17.2023 23.5752 17.6315C23.9987 18.0607 24.2366 18.6427 24.2366 19.2497C24.2366 19.8566 23.9987 20.4387 23.5752 20.8679C23.1517 21.297 22.5774 21.5381 21.9785 21.5381H16.7097C16.1108 21.5381 15.5365 21.297 15.113 20.8679C14.6895 20.4387 14.4516 19.8566 14.4516 19.2497ZM26.4946 31.4548C26.4946 32.0617 26.2567 32.6438 25.8333 33.073C25.4098 33.5022 24.8354 33.7433 24.2366 33.7433H18.9677C18.3689 33.7433 17.7945 33.5022 17.371 33.073C16.9476 32.6438 16.7097 32.0617 16.7097 31.4548C16.7097 30.8479 16.9476 30.2658 17.371 29.8366C17.7945 29.4074 18.3689 29.1663 18.9677 29.1663H24.2366C24.8354 29.1663 25.4098 29.4074 25.8333 29.8366C26.2567 30.2658 26.4946 30.8479 26.4946 31.4548ZM24.2366 39.083C24.2366 39.6899 23.9987 40.272 23.5752 40.7012C23.1517 41.1304 22.5774 41.3715 21.9785 41.3715H16.7097C16.1108 41.3715 15.5365 41.1304 15.113 40.7012C14.6895 40.272 14.4516 39.6899 14.4516 39.083C14.4516 38.4761 14.6895 37.894 15.113 37.4648C15.5365 37.0357 16.1108 36.7945 16.7097 36.7945H21.9785C22.5774 36.7945 23.1517 37.0357 23.5752 37.4648C23.9987 37.894 24.2366 38.4761 24.2366 39.083ZM41.5484 39.083C41.5484 39.6899 41.3105 40.272 40.887 40.7012C40.4635 41.1304 39.8892 41.3715 39.2903 41.3715H37.7849C37.1861 41.3715 36.6117 41.1304 36.1883 40.7012C35.7648 40.272 35.5269 39.6899 35.5269 39.083C35.5269 38.4761 35.7648 37.894 36.1883 37.4648C36.6117 37.0357 37.1861 36.7945 37.7849 36.7945H39.2903C39.8892 36.7945 40.4635 37.0357 40.887 37.4648C41.3105 37.894 41.5484 38.4761 41.5484 39.083ZM35.5269 31.4548C35.5269 30.8479 35.7648 30.2658 36.1883 29.8366C36.6117 29.4074 37.1861 29.1663 37.7849 29.1663H39.2903C39.8892 29.1663 40.4635 29.4074 40.887 29.8366C41.3105 30.2658 41.5484 30.8479 41.5484 31.4548C41.5484 32.0617 41.3105 32.6438 40.887 33.073C40.4635 33.5022 39.8892 33.7433 39.2903 33.7433H37.7849C37.1861 33.7433 36.6117 33.5022 36.1883 33.073C35.7648 32.6438 35.5269 32.0617 35.5269 31.4548Z" fill="black"/>
</mask>
<g mask="url(#mask0_1_656)">
<rect width="56" height="56" fill="#CF1312"/>
</g>
</g>
<defs>
<clipPath id="clip0_1_656">
<rect width="56" height="56" fill="white"/>
</clipPath>
</defs>
</svg>
