<svg width="16" height="16" viewBox="0 0 16 16" fill="none" xmlns="http://www.w3.org/2000/svg">
<g clip-path="url(#clip0_1_809)">
<mask id="mask0_1_809" style="mask-type:alpha" maskUnits="userSpaceOnUse" x="0" y="-1" width="16" height="17">
<path d="M14.0303 8.52892L9.53031 13.0289C9.38927 13.1677 9.19912 13.2451 9.00126 13.2443C8.80341 13.2435 8.61389 13.1645 8.47399 13.0246C8.33408 12.8847 8.25513 12.6952 8.25432 12.4973C8.25352 12.2995 8.33093 12.1093 8.46969 11.9683L11.6893 8.74861H2.5C2.30109 8.74861 2.11032 8.66959 1.96967 8.52894C1.82902 8.38829 1.75 8.19752 1.75 7.99861C1.75 7.7997 1.82902 7.60893 1.96967 7.46828C2.11032 7.32763 2.30109 7.24861 2.5 7.24861H11.6894L8.46969 4.02892C8.33093 3.88788 8.25352 3.69773 8.25432 3.49988C8.25513 3.30202 8.33408 3.1125 8.47399 2.9726C8.61389 2.8327 8.80341 2.75374 9.00126 2.75294C9.19912 2.75213 9.38927 2.82954 9.53031 2.9683L14.0303 7.4683C14.171 7.60895 14.25 7.79971 14.25 7.99861C14.25 8.19751 14.171 8.38827 14.0303 8.52892Z" fill="black"/>
</mask>
<g mask="url(#mask0_1_809)">
<rect y="-0.000976562" width="16" height="16" fill="white"/>
</g>
</g>
<defs>
<clipPath id="clip0_1_809">
<rect width="16" height="16" fill="white" transform="translate(0 -0.000976562)"/>
</clipPath>
</defs>
</svg>
