<svg width="16" height="16" viewBox="0 0 16 16" fill="none" xmlns="http://www.w3.org/2000/svg">
<g clip-path="url(#clip0_1_648)">
<mask id="mask0_1_648" style="mask-type:alpha" maskUnits="userSpaceOnUse" x="0" y="0" width="16" height="16">
<path d="M14.0303 8.5299L9.53031 13.0299C9.38927 13.1687 9.19912 13.2461 9.00126 13.2453C8.80341 13.2445 8.61389 13.1655 8.47399 13.0256C8.33408 12.8857 8.25513 12.6962 8.25432 12.4983C8.25352 12.3005 8.33093 12.1103 8.46969 11.9693L11.6893 8.74959H2.5C2.30109 8.74959 2.11032 8.67057 1.96967 8.52992C1.82902 8.38927 1.75 8.1985 1.75 7.99959C1.75 7.80068 1.82902 7.60991 1.96967 7.46926C2.11032 7.32861 2.30109 7.24959 2.5 7.24959H11.6894L8.46969 4.0299C8.33093 3.88886 8.25352 3.69871 8.25432 3.50085C8.25513 3.303 8.33408 3.11348 8.47399 2.97358C8.61389 2.83367 8.80341 2.75472 9.00126 2.75391C9.19912 2.75311 9.38927 2.83051 9.53031 2.96927L14.0303 7.46927C14.171 7.60993 14.25 7.80068 14.25 7.99959C14.25 8.19849 14.171 8.38925 14.0303 8.5299Z" fill="black"/>
</mask>
<g mask="url(#mask0_1_648)">
<rect width="16" height="16" fill="white"/>
</g>
</g>
<defs>
<clipPath id="clip0_1_648">
<rect width="16" height="16" fill="white"/>
</clipPath>
</defs>
</svg>
