<svg width="18" height="18" viewBox="0 0 18 18" fill="none" xmlns="http://www.w3.org/2000/svg">
<g clip-path="url(#clip0_1_900)">
<mask id="mask0_1_900" style="mask-type:alpha" maskUnits="userSpaceOnUse" x="0" y="0" width="18" height="18">
<path d="M16.3439 5.50357L14.2707 7.50238C13.8588 12.1442 9.80865 15.75 4.96901 15.75C3.97362 15.75 3.14986 15.5973 2.52517 15.2984C2.02404 15.0527 1.8181 14.7938 1.76318 14.7141C1.71774 14.6473 1.68846 14.5715 1.67752 14.4923C1.66659 14.413 1.67427 14.3324 1.7 14.2565C1.72574 14.1805 1.76886 14.1112 1.82615 14.0536C1.88344 13.996 1.95343 13.9516 2.03091 13.9238C2.04463 13.9172 3.66471 13.3195 4.71502 12.1707C4.06365 11.7221 3.49114 11.175 3.01943 10.5504C2.07896 9.31527 1.08357 7.17035 1.6808 3.96959C1.69958 3.87443 1.74457 3.78595 1.81103 3.71348C1.87748 3.64101 1.96294 3.58725 2.05836 3.55787C2.1541 3.52755 2.2566 3.52328 2.35467 3.54553C2.45275 3.56779 2.5426 3.6157 2.61441 3.68404C2.635 3.71061 4.92096 5.88872 7.7149 6.59262V6.18755C7.7176 5.76634 7.80603 5.34978 7.97516 4.96163C8.14428 4.57349 8.39078 4.22137 8.70058 3.92538C9.01039 3.6294 9.37742 3.39534 9.78074 3.23657C10.1841 3.0778 10.6157 2.99744 11.0512 3.00006C11.6226 3.00795 12.1823 3.15889 12.6755 3.4382C13.1688 3.7175 13.5788 4.11563 13.8657 4.5938H15.9526C16.061 4.59348 16.1671 4.6242 16.2575 4.68211C16.3479 4.74001 16.4186 4.82251 16.4606 4.91919C16.5001 5.01732 16.5102 5.12428 16.4895 5.22769C16.4689 5.33111 16.4184 5.42675 16.3439 5.50357Z" fill="black"/>
</mask>
<g mask="url(#mask0_1_900)">
<rect width="18" height="18" fill="#212529"/>
</g>
</g>
<defs>
<clipPath id="clip0_1_900">
<rect width="18" height="18" fill="white"/>
</clipPath>
</defs>
</svg>
