<svg width="18" height="18" viewBox="0 0 18 18" fill="none" xmlns="http://www.w3.org/2000/svg">
<g clip-path="url(#clip0_1_894)">
<mask id="mask0_1_894" style="mask-type:alpha" maskUnits="userSpaceOnUse" x="0" y="0" width="18" height="18">
<path d="M16.4925 12.827C16.3597 13.8413 15.863 14.7729 15.0948 15.4485C14.3266 16.1241 13.3393 16.4977 12.3163 16.5C6.3523 16.5 1.5 11.6477 1.5 5.68374C1.50226 4.66074 1.87592 3.67337 2.55152 2.9052C3.22713 2.13703 4.15869 1.64034 5.17302 1.50746C5.4316 1.47879 5.69258 1.53323 5.91813 1.66288C6.14367 1.79254 6.32206 1.99067 6.42741 2.22854L7.93718 5.75134C8.01549 5.9342 8.0469 6.13372 8.02853 6.33179C8.01017 6.52986 7.94262 6.7202 7.83202 6.88554L6.58515 8.79341C7.14976 9.93925 8.08008 10.8643 9.22912 11.4224L11.1145 10.168C11.2796 10.0566 11.4705 9.98925 11.6689 9.97216C11.8674 9.95508 12.0669 9.98886 12.2487 10.0703L15.7715 11.5726C16.0093 11.6779 16.2075 11.8563 16.3371 12.0819C16.4668 12.3074 16.5212 12.5684 16.4925 12.827Z" fill="black"/>
</mask>
<g mask="url(#mask0_1_894)">
<rect width="18" height="18" fill="#212529"/>
</g>
</g>
<defs>
<clipPath id="clip0_1_894">
<rect width="18" height="18" fill="white"/>
</clipPath>
</defs>
</svg>
