<svg width="18" height="18" viewBox="0 0 18 18" fill="none" xmlns="http://www.w3.org/2000/svg">
<g clip-path="url(#clip0_1_891)">
<mask id="mask0_1_891" style="mask-type:alpha" maskUnits="userSpaceOnUse" x="0" y="0" width="18" height="18">
<path d="M9 12.1875C8.51572 12.1875 8.03145 12.0287 7.61836 11.7067L1.5 6.94922V13.5938C1.5 14.3701 2.12959 15 2.90625 15H15.0938C15.8704 15 16.5 14.3704 16.5 13.5938V6.94922L10.3828 11.71C9.96973 12.0293 9.4834 12.1875 9 12.1875ZM1.97725 6.13184L8.19404 10.9688C8.66836 11.3379 9.33281 11.3379 9.80713 10.9688L16.0239 6.13184C16.2979 5.89746 16.5 5.53711 16.5 5.15625C16.5 4.37959 15.8701 3.75 15.0938 3.75H2.90625C2.12959 3.75 1.5 4.37959 1.5 5.15625C1.5 5.53711 1.67607 5.89746 1.97725 6.13184Z" fill="black"/>
</mask>
<g mask="url(#mask0_1_891)">
<rect width="18" height="18" fill="#212529"/>
</g>
</g>
<defs>
<clipPath id="clip0_1_891">
<rect width="18" height="18" fill="white"/>
</clipPath>
</defs>
</svg>
