<svg width="24" height="25" viewBox="0 0 24 25" fill="none" xmlns="http://www.w3.org/2000/svg">
<path d="M2.00783 15.064C2.00596 15.1154 2 15.1657 2 15.2178C2 15.2353 2.00261 15.252 2.00261 15.2692C2.00224 15.3034 2 15.3373 2 15.3716L2.00783 15.3663C2.08684 17.662 3.97 19.5 6.28659 19.5C8.65424 19.5 10.5732 17.583 10.5732 15.2178C10.5732 13.0599 8.97363 11.28 6.89518 10.984C7.41209 9.27327 8.99935 8.02867 10.881 8.02867V6.5C6.07603 6.50037 2.17032 10.3042 2.00783 15.064Z" fill="#CF1312"/>
<path d="M13.1272 15.064C13.1253 15.1154 13.1194 15.1657 13.1194 15.2178C13.1194 15.2353 13.122 15.252 13.122 15.2692C13.1216 15.3034 13.1194 15.3373 13.1194 15.3716L13.1272 15.3663C13.2062 17.662 15.0894 19.5 17.4059 19.5C19.7736 19.5 21.6925 17.583 21.6925 15.2178C21.6925 13.0599 20.093 11.28 18.0145 10.984C18.5311 9.27327 20.1183 8.02867 22 8.02867V6.5C17.195 6.50037 13.29 10.3042 13.1272 15.064Z" fill="#CF1312"/>
</svg>
